<mxfile host="app.diagrams.net" modified="2023-10-25T15:15:43.486Z" agent="Mozilla/5.0 (Windows NT 10.0; Win64; x64; rv:109.0) Gecko/20100101 Firefox/119.0" etag="ymgWgD-3ZOIltO85yWqU" version="22.0.8" type="github">
  <diagram name="Page-1" id="e56a1550-8fbb-45ad-956c-1786394a9013">
    <mxGraphModel dx="2100" dy="1910" grid="1" gridSize="10" guides="1" tooltips="1" connect="1" arrows="1" fold="1" page="1" pageScale="1" pageWidth="1100" pageHeight="850" background="none" math="0" shadow="0">
      <root>
        <mxCell id="0" />
        <mxCell id="1" parent="0" />
        <mxCell id="2e49270ec7c68f3f-80" value="Account" style="swimlane;html=1;fontStyle=0;childLayout=stackLayout;horizontal=1;startSize=26;fillColor=#e0e0e0;horizontalStack=0;resizeParent=1;resizeLast=0;collapsible=1;marginBottom=0;swimlaneFillColor=#ffffff;align=center;rounded=0;shadow=0;comic=0;labelBackgroundColor=none;strokeWidth=1;fontFamily=Verdana;fontSize=14" parent="1" vertex="1">
          <mxGeometry x="30" y="358" width="160" height="162" as="geometry" />
        </mxCell>
        <mxCell id="2e49270ec7c68f3f-81" value="accountId : Serial(10)" style="shape=partialRectangle;top=0;left=0;right=0;bottom=1;html=1;align=left;verticalAlign=middle;fillColor=none;spacingLeft=34;spacingRight=4;whiteSpace=wrap;overflow=hidden;rotatable=0;points=[[0,0.5],[1,0.5]];portConstraint=eastwest;dropTarget=0;fontStyle=5;" parent="2e49270ec7c68f3f-80" vertex="1">
          <mxGeometry y="26" width="160" height="30" as="geometry" />
        </mxCell>
        <mxCell id="2e49270ec7c68f3f-82" value="PK" style="shape=partialRectangle;top=0;left=0;bottom=0;html=1;fillColor=none;align=left;verticalAlign=middle;spacingLeft=4;spacingRight=4;whiteSpace=wrap;overflow=hidden;rotatable=0;points=[];portConstraint=eastwest;part=1;" parent="2e49270ec7c68f3f-81" vertex="1" connectable="0">
          <mxGeometry width="30" height="30" as="geometry" />
        </mxCell>
        <mxCell id="2e49270ec7c68f3f-83" value="username : String(50) " style="shape=partialRectangle;top=0;left=0;right=0;bottom=0;html=1;align=left;verticalAlign=top;fillColor=none;spacingLeft=34;spacingRight=4;whiteSpace=wrap;overflow=hidden;rotatable=0;points=[[0,0.5],[1,0.5]];portConstraint=eastwest;dropTarget=0;" parent="2e49270ec7c68f3f-80" vertex="1">
          <mxGeometry y="56" width="160" height="26" as="geometry" />
        </mxCell>
        <mxCell id="2e49270ec7c68f3f-84" value="" style="shape=partialRectangle;top=0;left=0;bottom=0;html=1;fillColor=none;align=left;verticalAlign=top;spacingLeft=4;spacingRight=4;whiteSpace=wrap;overflow=hidden;rotatable=0;points=[];portConstraint=eastwest;part=1;" parent="2e49270ec7c68f3f-83" vertex="1" connectable="0">
          <mxGeometry width="30" height="26" as="geometry" />
        </mxCell>
        <mxCell id="2e49270ec7c68f3f-89" value="email : String(50)" style="shape=partialRectangle;top=0;left=0;right=0;bottom=0;html=1;align=left;verticalAlign=top;fillColor=none;spacingLeft=34;spacingRight=4;whiteSpace=wrap;overflow=hidden;rotatable=0;points=[[0,0.5],[1,0.5]];portConstraint=eastwest;dropTarget=0;" parent="2e49270ec7c68f3f-80" vertex="1">
          <mxGeometry y="82" width="160" height="28" as="geometry" />
        </mxCell>
        <mxCell id="2e49270ec7c68f3f-90" value="" style="shape=partialRectangle;top=0;left=0;bottom=0;html=1;fillColor=none;align=left;verticalAlign=top;spacingLeft=4;spacingRight=4;whiteSpace=wrap;overflow=hidden;rotatable=0;points=[];portConstraint=eastwest;part=1;" parent="2e49270ec7c68f3f-89" vertex="1" connectable="0">
          <mxGeometry width="30" height="28" as="geometry" />
        </mxCell>
        <mxCell id="2e49270ec7c68f3f-85" value="&lt;div&gt;password : String(50)&lt;/div&gt;&lt;div&gt;&lt;br&gt;&lt;/div&gt;" style="shape=partialRectangle;top=0;left=0;right=0;bottom=0;html=1;align=left;verticalAlign=top;fillColor=none;spacingLeft=34;spacingRight=4;whiteSpace=wrap;overflow=hidden;rotatable=0;points=[[0,0.5],[1,0.5]];portConstraint=eastwest;dropTarget=0;" parent="2e49270ec7c68f3f-80" vertex="1">
          <mxGeometry y="110" width="160" height="26" as="geometry" />
        </mxCell>
        <mxCell id="2e49270ec7c68f3f-86" value="" style="shape=partialRectangle;top=0;left=0;bottom=0;html=1;fillColor=none;align=left;verticalAlign=top;spacingLeft=4;spacingRight=4;whiteSpace=wrap;overflow=hidden;rotatable=0;points=[];portConstraint=eastwest;part=1;" parent="2e49270ec7c68f3f-85" vertex="1" connectable="0">
          <mxGeometry width="30" height="26" as="geometry" />
        </mxCell>
        <mxCell id="2e49270ec7c68f3f-87" value="picture_id : Integer(10)" style="shape=partialRectangle;top=0;left=0;right=0;bottom=0;html=1;align=left;verticalAlign=top;fillColor=none;spacingLeft=34;spacingRight=4;whiteSpace=wrap;overflow=hidden;rotatable=0;points=[[0,0.5],[1,0.5]];portConstraint=eastwest;dropTarget=0;" parent="2e49270ec7c68f3f-80" vertex="1">
          <mxGeometry y="136" width="160" height="26" as="geometry" />
        </mxCell>
        <mxCell id="2e49270ec7c68f3f-88" value="FK" style="shape=partialRectangle;top=0;left=0;bottom=0;html=1;fillColor=none;align=left;verticalAlign=top;spacingLeft=4;spacingRight=4;whiteSpace=wrap;overflow=hidden;rotatable=0;points=[];portConstraint=eastwest;part=1;" parent="2e49270ec7c68f3f-87" vertex="1" connectable="0">
          <mxGeometry width="30" height="26" as="geometry" />
        </mxCell>
        <mxCell id="RBtmvL5JwZPeh6ji9N9Q-1" value="&amp;nbsp; Picture&lt;span style=&quot;white-space: pre;&quot;&gt;&#x9;&lt;/span&gt; " style="swimlane;html=1;fontStyle=0;childLayout=stackLayout;horizontal=1;startSize=26;fillColor=#e0e0e0;horizontalStack=0;resizeParent=1;resizeLast=0;collapsible=1;marginBottom=0;swimlaneFillColor=#ffffff;align=center;rounded=0;shadow=0;comic=0;labelBackgroundColor=none;strokeWidth=1;fontFamily=Verdana;fontSize=14" vertex="1" parent="1">
          <mxGeometry x="300" y="580" width="160" height="110" as="geometry" />
        </mxCell>
        <mxCell id="RBtmvL5JwZPeh6ji9N9Q-2" value="picture_Id" style="shape=partialRectangle;top=0;left=0;right=0;bottom=1;html=1;align=left;verticalAlign=middle;fillColor=none;spacingLeft=34;spacingRight=4;whiteSpace=wrap;overflow=hidden;rotatable=0;points=[[0,0.5],[1,0.5]];portConstraint=eastwest;dropTarget=0;fontStyle=5;" vertex="1" parent="RBtmvL5JwZPeh6ji9N9Q-1">
          <mxGeometry y="26" width="160" height="30" as="geometry" />
        </mxCell>
        <mxCell id="RBtmvL5JwZPeh6ji9N9Q-3" value="PK" style="shape=partialRectangle;top=0;left=0;bottom=0;html=1;fillColor=none;align=left;verticalAlign=middle;spacingLeft=4;spacingRight=4;whiteSpace=wrap;overflow=hidden;rotatable=0;points=[];portConstraint=eastwest;part=1;" vertex="1" connectable="0" parent="RBtmvL5JwZPeh6ji9N9Q-2">
          <mxGeometry width="30" height="30" as="geometry" />
        </mxCell>
        <mxCell id="RBtmvL5JwZPeh6ji9N9Q-4" value="name : String(50)" style="shape=partialRectangle;top=0;left=0;right=0;bottom=0;html=1;align=left;verticalAlign=top;fillColor=none;spacingLeft=34;spacingRight=4;whiteSpace=wrap;overflow=hidden;rotatable=0;points=[[0,0.5],[1,0.5]];portConstraint=eastwest;dropTarget=0;" vertex="1" parent="RBtmvL5JwZPeh6ji9N9Q-1">
          <mxGeometry y="56" width="160" height="26" as="geometry" />
        </mxCell>
        <mxCell id="RBtmvL5JwZPeh6ji9N9Q-5" value="" style="shape=partialRectangle;top=0;left=0;bottom=0;html=1;fillColor=none;align=left;verticalAlign=top;spacingLeft=4;spacingRight=4;whiteSpace=wrap;overflow=hidden;rotatable=0;points=[];portConstraint=eastwest;part=1;" vertex="1" connectable="0" parent="RBtmvL5JwZPeh6ji9N9Q-4">
          <mxGeometry width="30" height="26" as="geometry" />
        </mxCell>
        <mxCell id="RBtmvL5JwZPeh6ji9N9Q-6" value="ImageData : Bytea() " style="shape=partialRectangle;top=0;left=0;right=0;bottom=0;html=1;align=left;verticalAlign=top;fillColor=none;spacingLeft=34;spacingRight=4;whiteSpace=wrap;overflow=hidden;rotatable=0;points=[[0,0.5],[1,0.5]];portConstraint=eastwest;dropTarget=0;" vertex="1" parent="RBtmvL5JwZPeh6ji9N9Q-1">
          <mxGeometry y="82" width="160" height="26" as="geometry" />
        </mxCell>
        <mxCell id="RBtmvL5JwZPeh6ji9N9Q-7" value="" style="shape=partialRectangle;top=0;left=0;bottom=0;html=1;fillColor=none;align=left;verticalAlign=top;spacingLeft=4;spacingRight=4;whiteSpace=wrap;overflow=hidden;rotatable=0;points=[];portConstraint=eastwest;part=1;" vertex="1" connectable="0" parent="RBtmvL5JwZPeh6ji9N9Q-6">
          <mxGeometry width="30" height="26" as="geometry" />
        </mxCell>
        <mxCell id="RBtmvL5JwZPeh6ji9N9Q-8" value="" style="shape=partialRectangle;top=0;left=0;right=0;bottom=0;html=1;align=left;verticalAlign=top;fillColor=none;spacingLeft=34;spacingRight=4;whiteSpace=wrap;overflow=hidden;rotatable=0;points=[[0,0.5],[1,0.5]];portConstraint=eastwest;dropTarget=0;" vertex="1" parent="RBtmvL5JwZPeh6ji9N9Q-1">
          <mxGeometry y="108" width="160" height="2" as="geometry" />
        </mxCell>
        <mxCell id="RBtmvL5JwZPeh6ji9N9Q-9" value="" style="shape=partialRectangle;top=0;left=0;bottom=0;html=1;fillColor=none;align=left;verticalAlign=top;spacingLeft=4;spacingRight=4;whiteSpace=wrap;overflow=hidden;rotatable=0;points=[];portConstraint=eastwest;part=1;" vertex="1" connectable="0" parent="RBtmvL5JwZPeh6ji9N9Q-8">
          <mxGeometry width="30" height="2" as="geometry" />
        </mxCell>
        <mxCell id="RBtmvL5JwZPeh6ji9N9Q-14" style="edgeStyle=orthogonalEdgeStyle;rounded=0;orthogonalLoop=1;jettySize=auto;html=1;exitX=0;exitY=0.5;exitDx=0;exitDy=0;entryX=1;entryY=0.5;entryDx=0;entryDy=0;endArrow=block;endFill=0;" edge="1" parent="1" source="RBtmvL5JwZPeh6ji9N9Q-2" target="2e49270ec7c68f3f-87">
          <mxGeometry relative="1" as="geometry" />
        </mxCell>
        <mxCell id="RBtmvL5JwZPeh6ji9N9Q-29" style="edgeStyle=orthogonalEdgeStyle;rounded=0;orthogonalLoop=1;jettySize=auto;html=1;exitX=0;exitY=0.75;exitDx=0;exitDy=0;entryX=1;entryY=0.5;entryDx=0;entryDy=0;endArrow=block;endFill=0;" edge="1" parent="1" source="RBtmvL5JwZPeh6ji9N9Q-16" target="2e49270ec7c68f3f-81">
          <mxGeometry relative="1" as="geometry">
            <Array as="points">
              <mxPoint x="280" y="487" />
              <mxPoint x="280" y="399" />
            </Array>
          </mxGeometry>
        </mxCell>
        <mxCell id="RBtmvL5JwZPeh6ji9N9Q-16" value="Administrator" style="swimlane;html=1;fontStyle=0;childLayout=stackLayout;horizontal=1;startSize=26;fillColor=#e0e0e0;horizontalStack=0;resizeParent=1;resizeLast=0;collapsible=1;marginBottom=0;swimlaneFillColor=#ffffff;align=center;rounded=0;shadow=0;comic=0;labelBackgroundColor=none;strokeWidth=1;fontFamily=Verdana;fontSize=14" vertex="1" parent="1">
          <mxGeometry x="360" y="425" width="180" height="82" as="geometry" />
        </mxCell>
        <mxCell id="RBtmvL5JwZPeh6ji9N9Q-17" value="admin_Id : Serial(10)" style="shape=partialRectangle;top=0;left=0;right=0;bottom=1;html=1;align=left;verticalAlign=middle;fillColor=none;spacingLeft=34;spacingRight=4;whiteSpace=wrap;overflow=hidden;rotatable=0;points=[[0,0.5],[1,0.5]];portConstraint=eastwest;dropTarget=0;fontStyle=5;" vertex="1" parent="RBtmvL5JwZPeh6ji9N9Q-16">
          <mxGeometry y="26" width="180" height="30" as="geometry" />
        </mxCell>
        <mxCell id="RBtmvL5JwZPeh6ji9N9Q-18" value="PK" style="shape=partialRectangle;top=0;left=0;bottom=0;html=1;fillColor=none;align=left;verticalAlign=middle;spacingLeft=4;spacingRight=4;whiteSpace=wrap;overflow=hidden;rotatable=0;points=[];portConstraint=eastwest;part=1;" vertex="1" connectable="0" parent="RBtmvL5JwZPeh6ji9N9Q-17">
          <mxGeometry width="30" height="30" as="geometry" />
        </mxCell>
        <mxCell id="RBtmvL5JwZPeh6ji9N9Q-25" value="account_id : Integer(10)" style="shape=partialRectangle;top=0;left=0;right=0;bottom=0;html=1;align=left;verticalAlign=top;fillColor=none;spacingLeft=34;spacingRight=4;whiteSpace=wrap;overflow=hidden;rotatable=0;points=[[0,0.5],[1,0.5]];portConstraint=eastwest;dropTarget=0;" vertex="1" parent="RBtmvL5JwZPeh6ji9N9Q-16">
          <mxGeometry y="56" width="180" height="26" as="geometry" />
        </mxCell>
        <mxCell id="RBtmvL5JwZPeh6ji9N9Q-26" value="FK" style="shape=partialRectangle;top=0;left=0;bottom=0;html=1;fillColor=none;align=left;verticalAlign=top;spacingLeft=4;spacingRight=4;whiteSpace=wrap;overflow=hidden;rotatable=0;points=[];portConstraint=eastwest;part=1;" vertex="1" connectable="0" parent="RBtmvL5JwZPeh6ji9N9Q-25">
          <mxGeometry width="30" height="26" as="geometry" />
        </mxCell>
        <mxCell id="RBtmvL5JwZPeh6ji9N9Q-30" value="User" style="swimlane;html=1;fontStyle=0;childLayout=stackLayout;horizontal=1;startSize=26;fillColor=#e0e0e0;horizontalStack=0;resizeParent=1;resizeLast=0;collapsible=1;marginBottom=0;swimlaneFillColor=#ffffff;align=center;rounded=0;shadow=0;comic=0;labelBackgroundColor=none;strokeWidth=1;fontFamily=Verdana;fontSize=14" vertex="1" parent="1">
          <mxGeometry x="350" y="40" width="280" height="170" as="geometry" />
        </mxCell>
        <mxCell id="RBtmvL5JwZPeh6ji9N9Q-31" value="userId : Serial(10)" style="shape=partialRectangle;top=0;left=0;right=0;bottom=1;html=1;align=left;verticalAlign=middle;fillColor=none;spacingLeft=34;spacingRight=4;whiteSpace=wrap;overflow=hidden;rotatable=0;points=[[0,0.5],[1,0.5]];portConstraint=eastwest;dropTarget=0;fontStyle=5;" vertex="1" parent="RBtmvL5JwZPeh6ji9N9Q-30">
          <mxGeometry y="26" width="280" height="30" as="geometry" />
        </mxCell>
        <mxCell id="RBtmvL5JwZPeh6ji9N9Q-32" value="PK" style="shape=partialRectangle;top=0;left=0;bottom=0;html=1;fillColor=none;align=left;verticalAlign=middle;spacingLeft=4;spacingRight=4;whiteSpace=wrap;overflow=hidden;rotatable=0;points=[];portConstraint=eastwest;part=1;" vertex="1" connectable="0" parent="RBtmvL5JwZPeh6ji9N9Q-31">
          <mxGeometry width="30" height="30" as="geometry" />
        </mxCell>
        <mxCell id="RBtmvL5JwZPeh6ji9N9Q-33" value="age : Integer(3) " style="shape=partialRectangle;top=0;left=0;right=0;bottom=0;html=1;align=left;verticalAlign=top;fillColor=none;spacingLeft=34;spacingRight=4;whiteSpace=wrap;overflow=hidden;rotatable=0;points=[[0,0.5],[1,0.5]];portConstraint=eastwest;dropTarget=0;" vertex="1" parent="RBtmvL5JwZPeh6ji9N9Q-30">
          <mxGeometry y="56" width="280" height="26" as="geometry" />
        </mxCell>
        <mxCell id="RBtmvL5JwZPeh6ji9N9Q-34" value="" style="shape=partialRectangle;top=0;left=0;bottom=0;html=1;fillColor=none;align=left;verticalAlign=top;spacingLeft=4;spacingRight=4;whiteSpace=wrap;overflow=hidden;rotatable=0;points=[];portConstraint=eastwest;part=1;" vertex="1" connectable="0" parent="RBtmvL5JwZPeh6ji9N9Q-33">
          <mxGeometry width="30" height="26" as="geometry" />
        </mxCell>
        <mxCell id="RBtmvL5JwZPeh6ji9N9Q-35" value="description : String(255)" style="shape=partialRectangle;top=0;left=0;right=0;bottom=0;html=1;align=left;verticalAlign=top;fillColor=none;spacingLeft=34;spacingRight=4;whiteSpace=wrap;overflow=hidden;rotatable=0;points=[[0,0.5],[1,0.5]];portConstraint=eastwest;dropTarget=0;" vertex="1" parent="RBtmvL5JwZPeh6ji9N9Q-30">
          <mxGeometry y="82" width="280" height="28" as="geometry" />
        </mxCell>
        <mxCell id="RBtmvL5JwZPeh6ji9N9Q-36" value="" style="shape=partialRectangle;top=0;left=0;bottom=0;html=1;fillColor=none;align=left;verticalAlign=top;spacingLeft=4;spacingRight=4;whiteSpace=wrap;overflow=hidden;rotatable=0;points=[];portConstraint=eastwest;part=1;" vertex="1" connectable="0" parent="RBtmvL5JwZPeh6ji9N9Q-35">
          <mxGeometry width="30" height="28" as="geometry" />
        </mxCell>
        <mxCell id="RBtmvL5JwZPeh6ji9N9Q-37" value="course_Id : Integer(10)" style="shape=partialRectangle;top=0;left=0;right=0;bottom=0;html=1;align=left;verticalAlign=top;fillColor=none;spacingLeft=34;spacingRight=4;whiteSpace=wrap;overflow=hidden;rotatable=0;points=[[0,0.5],[1,0.5]];portConstraint=eastwest;dropTarget=0;" vertex="1" parent="RBtmvL5JwZPeh6ji9N9Q-30">
          <mxGeometry y="110" width="280" height="26" as="geometry" />
        </mxCell>
        <mxCell id="RBtmvL5JwZPeh6ji9N9Q-38" value="FK" style="shape=partialRectangle;top=0;left=0;bottom=0;html=1;fillColor=none;align=left;verticalAlign=top;spacingLeft=4;spacingRight=4;whiteSpace=wrap;overflow=hidden;rotatable=0;points=[];portConstraint=eastwest;part=1;" vertex="1" connectable="0" parent="RBtmvL5JwZPeh6ji9N9Q-37">
          <mxGeometry width="30" height="26" as="geometry" />
        </mxCell>
        <mxCell id="RBtmvL5JwZPeh6ji9N9Q-42" style="edgeStyle=orthogonalEdgeStyle;rounded=0;orthogonalLoop=1;jettySize=auto;html=1;exitX=0;exitY=0.5;exitDx=0;exitDy=0;endArrow=block;endFill=0;" edge="1" parent="RBtmvL5JwZPeh6ji9N9Q-30" source="RBtmvL5JwZPeh6ji9N9Q-39">
          <mxGeometry relative="1" as="geometry">
            <mxPoint x="-160" y="360" as="targetPoint" />
            <Array as="points">
              <mxPoint x="-70" y="153" />
              <mxPoint x="-70" y="360" />
            </Array>
          </mxGeometry>
        </mxCell>
        <mxCell id="RBtmvL5JwZPeh6ji9N9Q-39" value="&lt;div&gt;account_Id : Integer(10)&lt;/div&gt;" style="shape=partialRectangle;top=0;left=0;right=0;bottom=0;html=1;align=left;verticalAlign=top;fillColor=none;spacingLeft=34;spacingRight=4;whiteSpace=wrap;overflow=hidden;rotatable=0;points=[[0,0.5],[1,0.5]];portConstraint=eastwest;dropTarget=0;" vertex="1" parent="RBtmvL5JwZPeh6ji9N9Q-30">
          <mxGeometry y="136" width="280" height="34" as="geometry" />
        </mxCell>
        <mxCell id="RBtmvL5JwZPeh6ji9N9Q-40" value="&lt;div&gt;FK&lt;/div&gt;" style="shape=partialRectangle;top=0;left=0;bottom=0;html=1;fillColor=none;align=left;verticalAlign=top;spacingLeft=4;spacingRight=4;whiteSpace=wrap;overflow=hidden;rotatable=0;points=[];portConstraint=eastwest;part=1;" vertex="1" connectable="0" parent="RBtmvL5JwZPeh6ji9N9Q-39">
          <mxGeometry width="30" height="34.00000000000001" as="geometry" />
        </mxCell>
        <mxCell id="RBtmvL5JwZPeh6ji9N9Q-48" style="edgeStyle=orthogonalEdgeStyle;rounded=0;orthogonalLoop=1;jettySize=auto;html=1;exitX=0;exitY=0.5;exitDx=0;exitDy=0;" edge="1" parent="1" source="RBtmvL5JwZPeh6ji9N9Q-44" target="RBtmvL5JwZPeh6ji9N9Q-37">
          <mxGeometry relative="1" as="geometry" />
        </mxCell>
        <mxCell id="RBtmvL5JwZPeh6ji9N9Q-49" value="Faculty" style="swimlane;html=1;fontStyle=0;childLayout=stackLayout;horizontal=1;startSize=26;fillColor=#e0e0e0;horizontalStack=0;resizeParent=1;resizeLast=0;collapsible=1;marginBottom=0;swimlaneFillColor=#ffffff;align=center;rounded=0;shadow=0;comic=0;labelBackgroundColor=none;strokeWidth=1;fontFamily=Verdana;fontSize=14" vertex="1" parent="1">
          <mxGeometry x="680" y="460" width="180" height="80" as="geometry" />
        </mxCell>
        <mxCell id="RBtmvL5JwZPeh6ji9N9Q-50" value="fac_Id : Serial(10)" style="shape=partialRectangle;top=0;left=0;right=0;bottom=1;html=1;align=left;verticalAlign=middle;fillColor=none;spacingLeft=34;spacingRight=4;whiteSpace=wrap;overflow=hidden;rotatable=0;points=[[0,0.5],[1,0.5]];portConstraint=eastwest;dropTarget=0;fontStyle=5;" vertex="1" parent="RBtmvL5JwZPeh6ji9N9Q-49">
          <mxGeometry y="26" width="180" height="30" as="geometry" />
        </mxCell>
        <mxCell id="RBtmvL5JwZPeh6ji9N9Q-51" value="PK" style="shape=partialRectangle;top=0;left=0;bottom=0;html=1;fillColor=none;align=left;verticalAlign=middle;spacingLeft=4;spacingRight=4;whiteSpace=wrap;overflow=hidden;rotatable=0;points=[];portConstraint=eastwest;part=1;" vertex="1" connectable="0" parent="RBtmvL5JwZPeh6ji9N9Q-50">
          <mxGeometry width="30" height="30" as="geometry" />
        </mxCell>
        <mxCell id="RBtmvL5JwZPeh6ji9N9Q-52" value="name : String(20)" style="shape=partialRectangle;top=0;left=0;right=0;bottom=0;html=1;align=left;verticalAlign=top;fillColor=none;spacingLeft=34;spacingRight=4;whiteSpace=wrap;overflow=hidden;rotatable=0;points=[[0,0.5],[1,0.5]];portConstraint=eastwest;dropTarget=0;" vertex="1" parent="RBtmvL5JwZPeh6ji9N9Q-49">
          <mxGeometry y="56" width="180" height="24" as="geometry" />
        </mxCell>
        <mxCell id="RBtmvL5JwZPeh6ji9N9Q-53" value="" style="shape=partialRectangle;top=0;left=0;bottom=0;html=1;fillColor=none;align=left;verticalAlign=top;spacingLeft=4;spacingRight=4;whiteSpace=wrap;overflow=hidden;rotatable=0;points=[];portConstraint=eastwest;part=1;" vertex="1" connectable="0" parent="RBtmvL5JwZPeh6ji9N9Q-52">
          <mxGeometry width="30" height="24.000000000000004" as="geometry" />
        </mxCell>
        <mxCell id="RBtmvL5JwZPeh6ji9N9Q-54" style="edgeStyle=orthogonalEdgeStyle;rounded=0;orthogonalLoop=1;jettySize=auto;html=1;exitX=0;exitY=0.5;exitDx=0;exitDy=0;entryX=0;entryY=0.821;entryDx=0;entryDy=0;entryPerimeter=0;" edge="1" parent="1" source="RBtmvL5JwZPeh6ji9N9Q-49" target="RBtmvL5JwZPeh6ji9N9Q-46">
          <mxGeometry relative="1" as="geometry" />
        </mxCell>
        <mxCell id="RBtmvL5JwZPeh6ji9N9Q-55" value="Post" style="swimlane;html=1;fontStyle=0;childLayout=stackLayout;horizontal=1;startSize=26;fillColor=#e0e0e0;horizontalStack=0;resizeParent=1;resizeLast=0;collapsible=1;marginBottom=0;swimlaneFillColor=#ffffff;align=center;rounded=0;shadow=0;comic=0;labelBackgroundColor=none;strokeWidth=1;fontFamily=Verdana;fontSize=14" vertex="1" parent="1">
          <mxGeometry x="930" y="40" width="280" height="230" as="geometry" />
        </mxCell>
        <mxCell id="RBtmvL5JwZPeh6ji9N9Q-56" value="post_Id : Serial(10)" style="shape=partialRectangle;top=0;left=0;right=0;bottom=1;html=1;align=left;verticalAlign=middle;fillColor=none;spacingLeft=34;spacingRight=4;whiteSpace=wrap;overflow=hidden;rotatable=0;points=[[0,0.5],[1,0.5]];portConstraint=eastwest;dropTarget=0;fontStyle=5;" vertex="1" parent="RBtmvL5JwZPeh6ji9N9Q-55">
          <mxGeometry y="26" width="280" height="30" as="geometry" />
        </mxCell>
        <mxCell id="RBtmvL5JwZPeh6ji9N9Q-57" value="PK" style="shape=partialRectangle;top=0;left=0;bottom=0;html=1;fillColor=none;align=left;verticalAlign=middle;spacingLeft=4;spacingRight=4;whiteSpace=wrap;overflow=hidden;rotatable=0;points=[];portConstraint=eastwest;part=1;" vertex="1" connectable="0" parent="RBtmvL5JwZPeh6ji9N9Q-56">
          <mxGeometry width="30" height="30" as="geometry" />
        </mxCell>
        <mxCell id="RBtmvL5JwZPeh6ji9N9Q-58" value="title : String(255)" style="shape=partialRectangle;top=0;left=0;right=0;bottom=0;html=1;align=left;verticalAlign=top;fillColor=none;spacingLeft=34;spacingRight=4;whiteSpace=wrap;overflow=hidden;rotatable=0;points=[[0,0.5],[1,0.5]];portConstraint=eastwest;dropTarget=0;" vertex="1" parent="RBtmvL5JwZPeh6ji9N9Q-55">
          <mxGeometry y="56" width="280" height="26" as="geometry" />
        </mxCell>
        <mxCell id="RBtmvL5JwZPeh6ji9N9Q-59" value="" style="shape=partialRectangle;top=0;left=0;bottom=0;html=1;fillColor=none;align=left;verticalAlign=top;spacingLeft=4;spacingRight=4;whiteSpace=wrap;overflow=hidden;rotatable=0;points=[];portConstraint=eastwest;part=1;" vertex="1" connectable="0" parent="RBtmvL5JwZPeh6ji9N9Q-58">
          <mxGeometry width="30" height="26" as="geometry" />
        </mxCell>
        <mxCell id="RBtmvL5JwZPeh6ji9N9Q-60" value="&lt;div&gt;description : String(255)&lt;/div&gt;&lt;div&gt;&lt;br&gt;&lt;/div&gt;" style="shape=partialRectangle;top=0;left=0;right=0;bottom=0;html=1;align=left;verticalAlign=top;fillColor=none;spacingLeft=34;spacingRight=4;whiteSpace=wrap;overflow=hidden;rotatable=0;points=[[0,0.5],[1,0.5]];portConstraint=eastwest;dropTarget=0;" vertex="1" parent="RBtmvL5JwZPeh6ji9N9Q-55">
          <mxGeometry y="82" width="280" height="28" as="geometry" />
        </mxCell>
        <mxCell id="RBtmvL5JwZPeh6ji9N9Q-61" value="" style="shape=partialRectangle;top=0;left=0;bottom=0;html=1;fillColor=none;align=left;verticalAlign=top;spacingLeft=4;spacingRight=4;whiteSpace=wrap;overflow=hidden;rotatable=0;points=[];portConstraint=eastwest;part=1;" vertex="1" connectable="0" parent="RBtmvL5JwZPeh6ji9N9Q-60">
          <mxGeometry width="30" height="28" as="geometry" />
        </mxCell>
        <mxCell id="RBtmvL5JwZPeh6ji9N9Q-69" value="date : Timestamp()&lt;div&gt;&lt;br&gt;&lt;/div&gt;&lt;div&gt;&lt;br&gt;&lt;/div&gt;" style="shape=partialRectangle;top=0;left=0;right=0;bottom=0;html=1;align=left;verticalAlign=top;fillColor=none;spacingLeft=34;spacingRight=4;whiteSpace=wrap;overflow=hidden;rotatable=0;points=[[0,0.5],[1,0.5]];portConstraint=eastwest;dropTarget=0;" vertex="1" parent="RBtmvL5JwZPeh6ji9N9Q-55">
          <mxGeometry y="110" width="280" height="30" as="geometry" />
        </mxCell>
        <mxCell id="RBtmvL5JwZPeh6ji9N9Q-70" value="" style="shape=partialRectangle;top=0;left=0;bottom=0;html=1;fillColor=none;align=left;verticalAlign=top;spacingLeft=4;spacingRight=4;whiteSpace=wrap;overflow=hidden;rotatable=0;points=[];portConstraint=eastwest;part=1;" vertex="1" connectable="0" parent="RBtmvL5JwZPeh6ji9N9Q-69">
          <mxGeometry width="30" height="30.000000000000007" as="geometry" />
        </mxCell>
        <mxCell id="RBtmvL5JwZPeh6ji9N9Q-67" value="&lt;div&gt;picture_Id : Integer(10)&lt;/div&gt;&lt;div&gt;&lt;br&gt;&lt;/div&gt;&lt;div&gt;&lt;br&gt;&lt;/div&gt;" style="shape=partialRectangle;top=0;left=0;right=0;bottom=0;html=1;align=left;verticalAlign=top;fillColor=none;spacingLeft=34;spacingRight=4;whiteSpace=wrap;overflow=hidden;rotatable=0;points=[[0,0.5],[1,0.5]];portConstraint=eastwest;dropTarget=0;" vertex="1" parent="RBtmvL5JwZPeh6ji9N9Q-55">
          <mxGeometry y="140" width="280" height="30" as="geometry" />
        </mxCell>
        <mxCell id="RBtmvL5JwZPeh6ji9N9Q-68" value="&lt;div&gt;FK&lt;/div&gt;" style="shape=partialRectangle;top=0;left=0;bottom=0;html=1;fillColor=none;align=left;verticalAlign=top;spacingLeft=4;spacingRight=4;whiteSpace=wrap;overflow=hidden;rotatable=0;points=[];portConstraint=eastwest;part=1;" vertex="1" connectable="0" parent="RBtmvL5JwZPeh6ji9N9Q-67">
          <mxGeometry width="30" height="30.000000000000007" as="geometry" />
        </mxCell>
        <mxCell id="RBtmvL5JwZPeh6ji9N9Q-65" value="&lt;div&gt;user_Id : Integer(10)&lt;/div&gt;&lt;div&gt;&lt;br&gt;&lt;/div&gt;&lt;div&gt;&lt;br&gt;&lt;/div&gt;" style="shape=partialRectangle;top=0;left=0;right=0;bottom=0;html=1;align=left;verticalAlign=top;fillColor=none;spacingLeft=34;spacingRight=4;whiteSpace=wrap;overflow=hidden;rotatable=0;points=[[0,0.5],[1,0.5]];portConstraint=eastwest;dropTarget=0;" vertex="1" parent="RBtmvL5JwZPeh6ji9N9Q-55">
          <mxGeometry y="170" width="280" height="34" as="geometry" />
        </mxCell>
        <mxCell id="RBtmvL5JwZPeh6ji9N9Q-66" value="&lt;div&gt;FK&lt;/div&gt;" style="shape=partialRectangle;top=0;left=0;bottom=0;html=1;fillColor=none;align=left;verticalAlign=top;spacingLeft=4;spacingRight=4;whiteSpace=wrap;overflow=hidden;rotatable=0;points=[];portConstraint=eastwest;part=1;" vertex="1" connectable="0" parent="RBtmvL5JwZPeh6ji9N9Q-65">
          <mxGeometry width="30" height="34.00000000000001" as="geometry" />
        </mxCell>
        <mxCell id="RBtmvL5JwZPeh6ji9N9Q-62" value="course_Id : Integer(10)" style="shape=partialRectangle;top=0;left=0;right=0;bottom=0;html=1;align=left;verticalAlign=top;fillColor=none;spacingLeft=34;spacingRight=4;whiteSpace=wrap;overflow=hidden;rotatable=0;points=[[0,0.5],[1,0.5]];portConstraint=eastwest;dropTarget=0;" vertex="1" parent="RBtmvL5JwZPeh6ji9N9Q-55">
          <mxGeometry y="204" width="280" height="26" as="geometry" />
        </mxCell>
        <mxCell id="RBtmvL5JwZPeh6ji9N9Q-63" value="FK" style="shape=partialRectangle;top=0;left=0;bottom=0;html=1;fillColor=none;align=left;verticalAlign=top;spacingLeft=4;spacingRight=4;whiteSpace=wrap;overflow=hidden;rotatable=0;points=[];portConstraint=eastwest;part=1;" vertex="1" connectable="0" parent="RBtmvL5JwZPeh6ji9N9Q-62">
          <mxGeometry width="30" height="26" as="geometry" />
        </mxCell>
        <mxCell id="RBtmvL5JwZPeh6ji9N9Q-71" style="edgeStyle=orthogonalEdgeStyle;rounded=0;orthogonalLoop=1;jettySize=auto;html=1;exitX=0;exitY=0.5;exitDx=0;exitDy=0;entryX=0;entryY=0.5;entryDx=0;entryDy=0;" edge="1" parent="1" source="RBtmvL5JwZPeh6ji9N9Q-62" target="RBtmvL5JwZPeh6ji9N9Q-44">
          <mxGeometry relative="1" as="geometry" />
        </mxCell>
        <mxCell id="RBtmvL5JwZPeh6ji9N9Q-43" value="Course" style="swimlane;html=1;fontStyle=0;childLayout=stackLayout;horizontal=1;startSize=26;fillColor=#e0e0e0;horizontalStack=0;resizeParent=1;resizeLast=0;collapsible=1;marginBottom=0;swimlaneFillColor=#ffffff;align=center;rounded=0;shadow=0;comic=0;labelBackgroundColor=none;strokeWidth=1;fontFamily=Verdana;fontSize=14" vertex="1" parent="1">
          <mxGeometry x="680" y="290" width="180" height="110" as="geometry" />
        </mxCell>
        <mxCell id="RBtmvL5JwZPeh6ji9N9Q-44" value="course_Id : Serial(10)" style="shape=partialRectangle;top=0;left=0;right=0;bottom=1;html=1;align=left;verticalAlign=middle;fillColor=none;spacingLeft=34;spacingRight=4;whiteSpace=wrap;overflow=hidden;rotatable=0;points=[[0,0.5],[1,0.5]];portConstraint=eastwest;dropTarget=0;fontStyle=5;" vertex="1" parent="RBtmvL5JwZPeh6ji9N9Q-43">
          <mxGeometry y="26" width="180" height="30" as="geometry" />
        </mxCell>
        <mxCell id="RBtmvL5JwZPeh6ji9N9Q-45" value="PK" style="shape=partialRectangle;top=0;left=0;bottom=0;html=1;fillColor=none;align=left;verticalAlign=middle;spacingLeft=4;spacingRight=4;whiteSpace=wrap;overflow=hidden;rotatable=0;points=[];portConstraint=eastwest;part=1;" vertex="1" connectable="0" parent="RBtmvL5JwZPeh6ji9N9Q-44">
          <mxGeometry width="30" height="30" as="geometry" />
        </mxCell>
        <mxCell id="RBtmvL5JwZPeh6ji9N9Q-46" value="name : String(20)&lt;br&gt;&lt;div&gt;&lt;br&gt;&lt;/div&gt;&lt;div&gt;fac_Id : Integer(10)&lt;/div&gt;" style="shape=partialRectangle;top=0;left=0;right=0;bottom=0;html=1;align=left;verticalAlign=top;fillColor=none;spacingLeft=34;spacingRight=4;whiteSpace=wrap;overflow=hidden;rotatable=0;points=[[0,0.5],[1,0.5]];portConstraint=eastwest;dropTarget=0;" vertex="1" parent="RBtmvL5JwZPeh6ji9N9Q-43">
          <mxGeometry y="56" width="180" height="54" as="geometry" />
        </mxCell>
        <mxCell id="RBtmvL5JwZPeh6ji9N9Q-47" value="&lt;br&gt;&lt;div&gt;&lt;br&gt;&lt;/div&gt;&lt;div&gt;FK&lt;/div&gt;" style="shape=partialRectangle;top=0;left=0;bottom=0;html=1;fillColor=none;align=left;verticalAlign=top;spacingLeft=4;spacingRight=4;whiteSpace=wrap;overflow=hidden;rotatable=0;points=[];portConstraint=eastwest;part=1;" vertex="1" connectable="0" parent="RBtmvL5JwZPeh6ji9N9Q-46">
          <mxGeometry width="30" height="54.00000000000001" as="geometry" />
        </mxCell>
        <mxCell id="RBtmvL5JwZPeh6ji9N9Q-74" style="edgeStyle=orthogonalEdgeStyle;rounded=0;orthogonalLoop=1;jettySize=auto;html=1;exitX=0;exitY=0.5;exitDx=0;exitDy=0;entryX=1;entryY=0.5;entryDx=0;entryDy=0;" edge="1" parent="1" source="RBtmvL5JwZPeh6ji9N9Q-65" target="RBtmvL5JwZPeh6ji9N9Q-31">
          <mxGeometry relative="1" as="geometry" />
        </mxCell>
        <mxCell id="RBtmvL5JwZPeh6ji9N9Q-75" style="edgeStyle=orthogonalEdgeStyle;rounded=0;orthogonalLoop=1;jettySize=auto;html=1;exitX=1;exitY=0.5;exitDx=0;exitDy=0;entryX=1;entryY=0.5;entryDx=0;entryDy=0;" edge="1" parent="1" source="RBtmvL5JwZPeh6ji9N9Q-67" target="RBtmvL5JwZPeh6ji9N9Q-2">
          <mxGeometry relative="1" as="geometry" />
        </mxCell>
        <mxCell id="RBtmvL5JwZPeh6ji9N9Q-76" value="Comment" style="swimlane;html=1;fontStyle=0;childLayout=stackLayout;horizontal=1;startSize=26;fillColor=#e0e0e0;horizontalStack=0;resizeParent=1;resizeLast=0;collapsible=1;marginBottom=0;swimlaneFillColor=#ffffff;align=center;rounded=0;shadow=0;comic=0;labelBackgroundColor=none;strokeWidth=1;fontFamily=Verdana;fontSize=14" vertex="1" parent="1">
          <mxGeometry x="710" y="-340" width="280" height="212" as="geometry" />
        </mxCell>
        <mxCell id="RBtmvL5JwZPeh6ji9N9Q-77" value="comment_Id : Serial(10)" style="shape=partialRectangle;top=0;left=0;right=0;bottom=1;html=1;align=left;verticalAlign=middle;fillColor=none;spacingLeft=34;spacingRight=4;whiteSpace=wrap;overflow=hidden;rotatable=0;points=[[0,0.5],[1,0.5]];portConstraint=eastwest;dropTarget=0;fontStyle=5;" vertex="1" parent="RBtmvL5JwZPeh6ji9N9Q-76">
          <mxGeometry y="26" width="280" height="30" as="geometry" />
        </mxCell>
        <mxCell id="RBtmvL5JwZPeh6ji9N9Q-78" value="PK&lt;span style=&quot;white-space: pre;&quot;&gt;&#x9;&lt;/span&gt;" style="shape=partialRectangle;top=0;left=0;bottom=0;html=1;fillColor=none;align=left;verticalAlign=middle;spacingLeft=4;spacingRight=4;whiteSpace=wrap;overflow=hidden;rotatable=0;points=[];portConstraint=eastwest;part=1;" vertex="1" connectable="0" parent="RBtmvL5JwZPeh6ji9N9Q-77">
          <mxGeometry width="30" height="30" as="geometry" />
        </mxCell>
        <mxCell id="RBtmvL5JwZPeh6ji9N9Q-81" value="&lt;div&gt;description : String(255)&lt;/div&gt;&lt;div&gt;&lt;br&gt;&lt;/div&gt;" style="shape=partialRectangle;top=0;left=0;right=0;bottom=0;html=1;align=left;verticalAlign=top;fillColor=none;spacingLeft=34;spacingRight=4;whiteSpace=wrap;overflow=hidden;rotatable=0;points=[[0,0.5],[1,0.5]];portConstraint=eastwest;dropTarget=0;" vertex="1" parent="RBtmvL5JwZPeh6ji9N9Q-76">
          <mxGeometry y="56" width="280" height="28" as="geometry" />
        </mxCell>
        <mxCell id="RBtmvL5JwZPeh6ji9N9Q-82" value="" style="shape=partialRectangle;top=0;left=0;bottom=0;html=1;fillColor=none;align=left;verticalAlign=top;spacingLeft=4;spacingRight=4;whiteSpace=wrap;overflow=hidden;rotatable=0;points=[];portConstraint=eastwest;part=1;" vertex="1" connectable="0" parent="RBtmvL5JwZPeh6ji9N9Q-81">
          <mxGeometry width="30" height="28" as="geometry" />
        </mxCell>
        <mxCell id="RBtmvL5JwZPeh6ji9N9Q-83" value="date : Timestamp()&lt;div&gt;&lt;br&gt;&lt;/div&gt;&lt;div&gt;&lt;br&gt;&lt;/div&gt;" style="shape=partialRectangle;top=0;left=0;right=0;bottom=0;html=1;align=left;verticalAlign=top;fillColor=none;spacingLeft=34;spacingRight=4;whiteSpace=wrap;overflow=hidden;rotatable=0;points=[[0,0.5],[1,0.5]];portConstraint=eastwest;dropTarget=0;" vertex="1" parent="RBtmvL5JwZPeh6ji9N9Q-76">
          <mxGeometry y="84" width="280" height="30" as="geometry" />
        </mxCell>
        <mxCell id="RBtmvL5JwZPeh6ji9N9Q-84" value="" style="shape=partialRectangle;top=0;left=0;bottom=0;html=1;fillColor=none;align=left;verticalAlign=top;spacingLeft=4;spacingRight=4;whiteSpace=wrap;overflow=hidden;rotatable=0;points=[];portConstraint=eastwest;part=1;" vertex="1" connectable="0" parent="RBtmvL5JwZPeh6ji9N9Q-83">
          <mxGeometry width="30" height="30.000000000000007" as="geometry" />
        </mxCell>
        <mxCell id="RBtmvL5JwZPeh6ji9N9Q-85" value="&lt;div&gt;picture_Id : Integer(10)&lt;/div&gt;&lt;div&gt;&lt;br&gt;&lt;/div&gt;&lt;div&gt;&lt;br&gt;&lt;/div&gt;" style="shape=partialRectangle;top=0;left=0;right=0;bottom=0;html=1;align=left;verticalAlign=top;fillColor=none;spacingLeft=34;spacingRight=4;whiteSpace=wrap;overflow=hidden;rotatable=0;points=[[0,0.5],[1,0.5]];portConstraint=eastwest;dropTarget=0;" vertex="1" parent="RBtmvL5JwZPeh6ji9N9Q-76">
          <mxGeometry y="114" width="280" height="30" as="geometry" />
        </mxCell>
        <mxCell id="RBtmvL5JwZPeh6ji9N9Q-86" value="&lt;div&gt;FK&lt;/div&gt;" style="shape=partialRectangle;top=0;left=0;bottom=0;html=1;fillColor=none;align=left;verticalAlign=top;spacingLeft=4;spacingRight=4;whiteSpace=wrap;overflow=hidden;rotatable=0;points=[];portConstraint=eastwest;part=1;" vertex="1" connectable="0" parent="RBtmvL5JwZPeh6ji9N9Q-85">
          <mxGeometry width="30" height="30.000000000000007" as="geometry" />
        </mxCell>
        <mxCell id="RBtmvL5JwZPeh6ji9N9Q-87" value="&lt;div&gt;user_Id : Integer(10)&lt;/div&gt;&lt;div&gt;&lt;br&gt;&lt;/div&gt;&lt;div&gt;&lt;br&gt;&lt;/div&gt;" style="shape=partialRectangle;top=0;left=0;right=0;bottom=0;html=1;align=left;verticalAlign=top;fillColor=none;spacingLeft=34;spacingRight=4;whiteSpace=wrap;overflow=hidden;rotatable=0;points=[[0,0.5],[1,0.5]];portConstraint=eastwest;dropTarget=0;" vertex="1" parent="RBtmvL5JwZPeh6ji9N9Q-76">
          <mxGeometry y="144" width="280" height="34" as="geometry" />
        </mxCell>
        <mxCell id="RBtmvL5JwZPeh6ji9N9Q-88" value="&lt;div&gt;FK&lt;/div&gt;" style="shape=partialRectangle;top=0;left=0;bottom=0;html=1;fillColor=none;align=left;verticalAlign=top;spacingLeft=4;spacingRight=4;whiteSpace=wrap;overflow=hidden;rotatable=0;points=[];portConstraint=eastwest;part=1;" vertex="1" connectable="0" parent="RBtmvL5JwZPeh6ji9N9Q-87">
          <mxGeometry width="30" height="34.00000000000001" as="geometry" />
        </mxCell>
        <mxCell id="RBtmvL5JwZPeh6ji9N9Q-91" value="&lt;div&gt;post_Id : Integer(10)&lt;/div&gt;&lt;div&gt;&lt;br&gt;&lt;/div&gt;&lt;div&gt;&lt;br&gt;&lt;/div&gt;" style="shape=partialRectangle;top=0;left=0;right=0;bottom=0;html=1;align=left;verticalAlign=top;fillColor=none;spacingLeft=34;spacingRight=4;whiteSpace=wrap;overflow=hidden;rotatable=0;points=[[0,0.5],[1,0.5]];portConstraint=eastwest;dropTarget=0;" vertex="1" parent="RBtmvL5JwZPeh6ji9N9Q-76">
          <mxGeometry y="178" width="280" height="34" as="geometry" />
        </mxCell>
        <mxCell id="RBtmvL5JwZPeh6ji9N9Q-92" value="&lt;div&gt;FK&lt;/div&gt;" style="shape=partialRectangle;top=0;left=0;bottom=0;html=1;fillColor=none;align=left;verticalAlign=top;spacingLeft=4;spacingRight=4;whiteSpace=wrap;overflow=hidden;rotatable=0;points=[];portConstraint=eastwest;part=1;" vertex="1" connectable="0" parent="RBtmvL5JwZPeh6ji9N9Q-91">
          <mxGeometry width="30" height="34.00000000000001" as="geometry" />
        </mxCell>
        <mxCell id="RBtmvL5JwZPeh6ji9N9Q-93" style="edgeStyle=orthogonalEdgeStyle;rounded=0;orthogonalLoop=1;jettySize=auto;html=1;exitX=1;exitY=0.5;exitDx=0;exitDy=0;entryX=1.012;entryY=-0.664;entryDx=0;entryDy=0;entryPerimeter=0;" edge="1" parent="1" source="RBtmvL5JwZPeh6ji9N9Q-85" target="RBtmvL5JwZPeh6ji9N9Q-4">
          <mxGeometry relative="1" as="geometry">
            <Array as="points">
              <mxPoint x="1270" y="-211" />
              <mxPoint x="1270" y="620" />
              <mxPoint x="462" y="620" />
            </Array>
          </mxGeometry>
        </mxCell>
        <mxCell id="RBtmvL5JwZPeh6ji9N9Q-94" style="edgeStyle=orthogonalEdgeStyle;rounded=0;orthogonalLoop=1;jettySize=auto;html=1;exitX=0;exitY=0.5;exitDx=0;exitDy=0;entryX=1;entryY=0.5;entryDx=0;entryDy=0;" edge="1" parent="1" source="RBtmvL5JwZPeh6ji9N9Q-87" target="RBtmvL5JwZPeh6ji9N9Q-31">
          <mxGeometry relative="1" as="geometry" />
        </mxCell>
        <mxCell id="RBtmvL5JwZPeh6ji9N9Q-95" style="edgeStyle=orthogonalEdgeStyle;rounded=0;orthogonalLoop=1;jettySize=auto;html=1;exitX=1;exitY=0.5;exitDx=0;exitDy=0;entryX=0;entryY=0.5;entryDx=0;entryDy=0;" edge="1" parent="1" source="RBtmvL5JwZPeh6ji9N9Q-91" target="RBtmvL5JwZPeh6ji9N9Q-56">
          <mxGeometry relative="1" as="geometry" />
        </mxCell>
      </root>
    </mxGraphModel>
  </diagram>
</mxfile>
